<svg width="44" height="44" viewBox="0 0 44 44" fill="none" xmlns="http://www.w3.org/2000/svg">
<rect width="44" height="44" rx="5" fill="#1A1A1A"/>
<path d="M21.96 16.385C22.4576 16.3434 22.9419 16.2021 23.3839 15.9697C23.8259 15.7373 24.2166 15.4184 24.533 15.032C25.1566 14.2841 25.509 13.3474 25.533 12.374C25.534 12.2484 25.522 12.1231 25.497 12C24.4152 12.1059 23.4159 12.6249 22.707 13.449C22.0721 14.1598 21.7048 15.0696 21.668 16.022C21.6684 16.1356 21.6805 16.2489 21.704 16.36C21.7883 16.3767 21.8741 16.3851 21.96 16.385ZM18.94 31C20.112 31 20.631 30.215 22.093 30.215C23.579 30.215 23.905 30.976 25.209 30.976C26.49 30.976 27.347 29.792 28.156 28.633C28.7155 27.8008 29.1549 26.8939 29.461 25.939C28.7085 25.618 28.0669 25.0831 27.6159 24.4006C27.1648 23.7181 26.9242 22.9181 26.924 22.1C26.9311 21.3727 27.1221 20.6591 27.4791 20.0255C27.8361 19.3919 28.3476 18.8588 28.966 18.476C28.5422 17.878 27.9779 17.3934 27.3227 17.0649C26.6676 16.7364 25.9417 16.574 25.209 16.592C23.772 16.592 22.6 17.462 21.863 17.462C21.063 17.462 20.015 16.64 18.771 16.64C16.404 16.64 14 18.597 14 22.293C14.0458 24.5386 14.7378 26.7234 15.993 28.586C16.935 29.913 17.757 31 18.94 31Z" fill="white"/>
</svg>
