<svg width="44" height="44" viewBox="0 0 44 44" fill="none" xmlns="http://www.w3.org/2000/svg">
<rect x="0.5" y="0.5" width="43" height="43" rx="4.5" fill="white" stroke="#DDDDDD" stroke-linecap="round" stroke-linejoin="round"/>
<path fill-rule="evenodd" clip-rule="evenodd" d="M30.64 22.2001C30.6407 21.5828 30.5859 20.9666 30.476 20.3591H22V23.8401H26.844C26.7432 24.391 26.5317 24.9158 26.2224 25.3826C25.913 25.8494 25.5121 26.2487 25.044 26.5561V28.8201H27.952C28.8391 27.9668 29.5368 26.9364 29.9999 25.796C30.463 24.6555 30.6811 23.4304 30.64 22.2001Z" fill="#4285F4"/>
<path fill-rule="evenodd" clip-rule="evenodd" d="M22 31.0002C24.1907 31.0595 26.3213 30.2797 27.956 28.8202L25.048 26.5612C24.3522 27.0078 23.5636 27.2897 22.7422 27.3852C21.9209 27.4807 21.0887 27.3875 20.3089 27.1124C19.5291 26.8374 18.8224 26.388 18.2428 25.7984C17.6631 25.2088 17.2257 24.4945 16.964 23.7102H13.957V26.0422C14.7064 27.5329 15.8553 28.786 17.2756 29.6615C18.6959 30.537 20.3316 31.0005 22 31.0002Z" fill="#34A853"/>
<path fill-rule="evenodd" clip-rule="evenodd" d="M16.9641 23.71C16.5881 22.601 16.5881 21.399 16.9641 20.29V17.958H13.9571C13.3277 19.2125 13 20.5965 13 22C13 23.4035 13.3277 24.7876 13.9571 26.042L16.9641 23.71Z" fill="#FBBC05"/>
<path fill-rule="evenodd" clip-rule="evenodd" d="M22 16.5801C23.279 16.5586 24.5149 17.0418 25.44 17.9251L28.022 15.3441C26.3928 13.8143 24.2348 12.9743 22 13.0001C20.3316 12.9998 18.6959 13.4632 17.2756 14.3388C15.8553 15.2143 14.7064 16.4674 13.957 17.9581L16.964 20.2901C17.3099 19.2227 17.9819 18.2906 18.8853 17.6251C19.7887 16.9595 20.878 16.5941 22 16.5801Z" fill="#EA4335"/>
</svg>
