<svg width="24" height="24" viewBox="0 0 24 24" fill="none" xmlns="http://www.w3.org/2000/svg">
<path fill-rule="evenodd" clip-rule="evenodd" d="M20.64 12.2001C20.6407 11.5828 20.5859 10.9666 20.476 10.3591H12V13.8401H16.844C16.7432 14.391 16.5317 14.9158 16.2224 15.3826C15.913 15.8494 15.5121 16.2487 15.044 16.5561V18.8201H17.952C18.8391 17.9668 19.5368 16.9364 19.9999 15.796C20.463 14.6555 20.6811 13.4304 20.64 12.2001Z" fill="#4285F4"/>
<path fill-rule="evenodd" clip-rule="evenodd" d="M12 21.0002C14.1907 21.0595 16.3213 20.2797 17.956 18.8202L15.048 16.5612C14.3522 17.0078 13.5636 17.2897 12.7422 17.3852C11.9209 17.4807 11.0887 17.3875 10.3089 17.1124C9.52912 16.8374 8.82245 16.388 8.24277 15.7984C7.6631 15.2088 7.22573 14.4945 6.96403 13.7102H3.95703V16.0422C4.70635 17.5329 5.85531 18.786 7.27559 19.6615C8.69588 20.537 10.3316 21.0005 12 21.0002Z" fill="#34A853"/>
<path fill-rule="evenodd" clip-rule="evenodd" d="M6.96405 13.71C6.58808 12.601 6.58808 11.399 6.96405 10.29V7.95801H3.95705C3.32772 9.21246 3 10.5965 3 12C3 13.4035 3.32772 14.7876 3.95705 16.042L6.96405 13.71Z" fill="#FBBC05"/>
<path fill-rule="evenodd" clip-rule="evenodd" d="M12 6.58009C13.279 6.55856 14.5149 7.04179 15.44 7.92509L18.022 5.34409C16.3928 3.81431 14.2348 2.97433 12 3.00009C10.3316 2.99977 8.69588 3.46325 7.27559 4.33876C5.85531 5.21428 4.70635 6.46736 3.95703 7.95809L6.96403 10.2901C7.30994 9.22266 7.98188 8.29058 8.88528 7.62505C9.78868 6.95952 10.878 6.59405 12 6.58009Z" fill="#EA4335"/>
</svg>
