<svg width="40" height="40" viewBox="0 0 40 40" fill="none" xmlns="http://www.w3.org/2000/svg">
<g clip-path="url(#clip0_2980_11050)">
<rect x="5" y="5" width="30" height="30" rx="5" fill="#7F21F7"/>
<path d="M13.0026 13.0021C13.8822 12.0252 14.9635 11.2511 16.1718 10.7333C17.38 10.2155 18.6863 9.96635 20.0003 10.0031C21.3143 9.96635 22.6206 10.2155 23.8288 10.7333C25.0371 11.2511 26.1184 12.0252 26.998 13.0021C27.9749 13.8817 28.7489 14.963 29.2668 16.1713C29.7846 17.3795 30.0337 18.6858 29.997 19.9998C30.0337 21.3138 29.7846 22.6201 29.2668 23.8283C28.7489 25.0366 27.9749 26.1179 26.998 26.9975C26.1184 27.9744 25.0371 28.7485 23.8288 29.2663C22.6206 29.7841 21.3143 30.0333 20.0003 29.9966C18.6863 30.0333 17.38 29.7841 16.1718 29.2663C14.9635 28.7485 13.8822 27.9744 13.0026 26.9975C11.1172 25.1531 10.0389 22.6371 10.0035 19.9998C9.96684 18.6858 10.216 17.3795 10.7338 16.1713C11.2516 14.963 12.0257 13.8817 13.0026 13.0021ZM21.3336 27.9972C22.3224 27.8209 23.2119 27.2872 23.8328 26.4977C24.5154 25.4509 24.9169 24.2459 24.9987 22.9988C25.0018 22.6266 24.9296 22.2575 24.7863 21.9139C24.6431 21.5703 24.4318 21.2593 24.1652 20.9995C23.8944 20.6904 23.5617 20.4418 23.1886 20.2696C22.8156 20.0973 22.4105 20.0054 21.9996 19.9998H20.3339C19.8196 19.9687 19.3134 19.8561 18.8344 19.6662C18.6716 19.5196 18.5426 19.3395 18.4563 19.1382C18.37 18.9369 18.3285 18.7192 18.3346 18.5003C18.3371 18.3714 18.3684 18.2448 18.4261 18.1296C18.4838 18.0143 18.5666 17.9135 18.6682 17.8343C18.8517 17.6586 19.0838 17.5424 19.3343 17.5006C19.5015 17.5172 19.663 17.5706 19.8071 17.657C19.9512 17.7434 20.0744 17.8607 20.1677 18.0005C20.5014 18.1666 20.6676 18.3341 20.8338 18.3341C21.0686 18.3587 21.3045 18.2994 21.4998 18.1666C21.6321 17.9712 21.691 17.7353 21.666 17.5006C21.5987 16.8629 21.3026 16.2711 20.8325 15.8349C21.3605 14.8621 21.6464 13.7764 21.666 12.6697C21.6602 12.5831 21.6231 12.5016 21.5618 12.4403C21.5004 12.3789 21.4189 12.3419 21.3324 12.336C20.9052 12.1659 20.4572 12.0537 20.0003 12.0024C18.4607 12.0381 16.9612 12.4996 15.6679 13.3357C15.1828 13.7421 14.7959 14.253 14.5362 14.8302C14.2765 15.4073 14.1508 16.0358 14.1684 16.6684C14.1592 17.2596 14.273 17.8462 14.5025 18.3911C14.732 18.936 15.0723 19.4272 15.5018 19.8336C16.3425 20.6738 17.4785 21.1519 18.667 21.1657V21.8317C18.6508 22.1413 18.702 22.4508 18.8173 22.7386C18.9325 23.0264 19.1089 23.2858 19.3343 23.4987C19.6872 24.012 20.2241 24.37 20.8338 24.4983V27.4974C20.8338 27.6636 20.8338 27.6636 21 27.831C21.1662 27.9985 21.1662 27.9972 21.3336 27.9972Z" fill="white"/>
</g>
<defs>
<clipPath id="clip0_2980_11050">
<rect width="40" height="40" fill="white"/>
</clipPath>
</defs>
</svg>
