<svg width="40" height="40" viewBox="0 0 40 40" fill="none" xmlns="http://www.w3.org/2000/svg">
<path d="M19.9708 5.75277C12.0968 5.75277 5.72852 11.6572 5.72852 18.9452C5.72852 24.3247 7.98287 26.8924 11.0673 29.2322V35.5435C11.067 35.6108 11.0853 35.6768 11.1203 35.7342C11.1554 35.7916 11.2057 35.8382 11.2657 35.8686C11.3257 35.899 11.393 35.9121 11.46 35.9064C11.527 35.9008 11.5911 35.8766 11.6452 35.8365L17.0532 31.8202L17.1671 31.869C18.0919 32.0394 19.0304 32.1252 19.9708 32.1254C27.8488 32.1254 34.213 26.2209 34.213 18.937C34.213 11.6531 27.8325 5.74463 19.9708 5.74463" fill="#FFDE00"/>
<path d="M19.9707 5C11.702 5 5 11.2015 5 18.8353C5 24.4834 7.36422 27.1813 10.6074 29.6391V36.2679C10.6078 36.3386 10.6277 36.4078 10.665 36.4678C10.7024 36.5279 10.7556 36.5764 10.8188 36.608C10.8821 36.6396 10.9528 36.6531 11.0232 36.6469C11.0937 36.6407 11.161 36.6152 11.2178 36.5731L16.8943 32.3574L17.0164 32.4103C17.987 32.5874 18.9718 32.6759 19.9584 32.6748C28.2271 32.6748 34.9291 26.4773 34.9291 18.8394C34.9291 11.2015 28.2271 5.00407 19.9584 5.00407L19.9707 5ZM14.9533 22.343C15.645 22.366 16.3248 22.1586 16.886 21.7536C17.4471 21.3486 17.858 20.7687 18.0541 20.1049H20.223C20.0143 21.3404 19.366 22.4588 18.3975 23.2537C17.429 24.0487 16.2058 24.4667 14.9533 24.4305C14.2034 24.4507 13.4571 24.3205 12.7584 24.0474C12.0597 23.7744 11.4227 23.3642 10.8852 22.8409C10.3477 22.3176 9.92041 21.692 9.62867 21.0009C9.33694 20.3098 9.18664 19.5672 9.18664 18.817C9.18664 18.0669 9.33694 17.3243 9.62867 16.6332C9.92041 15.9421 10.3477 15.3164 10.8852 14.7932C11.4227 14.2699 12.0597 13.8597 12.7584 13.5866C13.4571 13.3136 14.2034 13.1834 14.9533 13.2035C16.2204 13.1659 17.4574 13.5928 18.4317 14.4037C19.406 15.2146 20.0503 16.3536 20.2433 17.6064H18.0785C17.9083 16.9158 17.5046 16.3052 16.9358 15.878C16.367 15.4509 15.6681 15.2335 14.9574 15.2626C14.487 15.2434 14.0179 15.3223 13.5797 15.4944C13.1416 15.6665 12.7441 15.928 12.4126 16.2622C12.0811 16.5964 11.8228 16.996 11.6542 17.4355C11.4856 17.875 11.4104 18.3448 11.4334 18.815C11.4269 19.2798 11.5135 19.7412 11.6882 20.1719C11.8629 20.6026 12.1222 20.994 12.4507 21.3229C12.7792 21.6517 13.1703 21.9114 13.6008 22.0867C14.0313 22.2619 14.4926 22.349 14.9574 22.343H14.9533ZM29.2607 24.2149H27.2668V19.7387C27.2668 18.7051 26.6645 18.1517 25.7408 18.1517C24.7072 18.1517 24.0439 18.7824 24.0439 20.0643V24.2271H22.0541V13.2402H24.0439V17.3664C24.52 16.642 25.2932 16.288 26.3431 16.288C26.7299 16.2734 27.1154 16.3413 27.4739 16.4872C27.8324 16.6332 28.1558 16.8538 28.4224 17.1344C28.7074 17.4512 28.9261 17.8217 29.0659 18.2242C29.2056 18.6267 29.2636 19.0531 29.2363 19.4783L29.2607 24.2149Z" fill="#231815"/>
</svg>
