<svg width="40" height="40" viewBox="0 0 40 40" fill="none" xmlns="http://www.w3.org/2000/svg">
<path d="M31.4017 6.66675H8.59768C5.68942 6.66675 3.33301 9.03142 3.33301 11.9486V24.4791C3.33301 27.3963 5.68942 29.7609 8.59768 29.7609H16.4526L19.1334 34.1243C19.1334 34.1243 19.1623 34.1764 19.2207 34.2484C19.3777 34.5167 19.6661 34.7001 19.9993 34.7001C20.3309 34.7001 20.6176 34.5199 20.7754 34.2541C20.8427 34.1748 20.8659 34.1243 20.8659 34.1243L23.5467 29.7609H31.4017C34.3083 29.7609 36.6663 27.3963 36.6663 24.4791V11.9486C36.6663 9.03142 34.3091 6.66675 31.4017 6.66675Z" fill="#20CF5D"/>
<path d="M10.8766 15.8495C10.8766 15.8495 9.94939 15.8495 9.10873 16.6527V13.4175H7.02832V21.9179H9.12995V21.2517C9.12995 21.2517 9.62537 22.1302 10.8766 22.1302C10.8766 22.1302 13.8074 22.0244 13.8074 18.9582C13.8066 18.9582 13.6989 15.8495 10.8766 15.8495ZM10.4187 20.3356C9.68087 20.3356 9.0818 19.7486 9.0818 19.0239C9.0818 18.2999 9.68087 17.713 10.4187 17.713C11.1565 17.713 11.7548 18.2999 11.7548 19.0239C11.7548 19.7486 11.1557 20.3356 10.4187 20.3356Z" fill="white"/>
<path d="M14.4746 13.2261V15.1928C14.4746 15.1928 15.4238 15.1504 15.4238 16.8849V21.9171H17.4283V16.4197C17.4275 16.4197 17.5132 13.2261 14.4746 13.2261Z" fill="white"/>
<path d="M22.3281 15.875C22.3281 15.875 18.892 15.8758 18.892 19.0237C18.892 19.0237 18.781 22.1292 22.3281 22.1292C22.3281 22.1292 25.8433 22.1244 25.8433 19.0237C25.8433 19.0237 25.9576 15.875 22.3281 15.875ZM22.3289 20.3346C21.5911 20.3346 20.992 19.7477 20.992 19.0229C20.992 18.299 21.5911 17.712 22.3289 17.712C23.0667 17.712 23.6649 18.299 23.6649 19.0229C23.6649 19.7477 23.0667 20.3346 22.3289 20.3346Z" fill="white"/>
<path d="M31.5818 16.0817V16.6519C31.5818 16.6519 30.9844 15.8751 29.8368 15.8751C29.8368 15.8751 26.8945 15.7534 26.8945 19.0022C26.8945 19.0022 26.8619 22.0284 29.7552 22.0284C29.7552 22.0284 30.9354 22.0757 31.581 21.2509V21.7273C31.581 21.7273 31.7271 23.2184 30.2555 23.2184H29.7544V25.0258H30.5624C30.5624 25.0258 33.601 25.0578 33.601 21.8386V16.0817H31.5818ZM30.3388 20.3347C29.601 20.3347 29.0027 19.7478 29.0027 19.023C29.0027 18.2991 29.601 17.7121 30.3388 17.7121C31.0766 17.7121 31.6748 18.2991 31.6748 19.023C31.6748 19.7478 31.0766 20.3347 30.3388 20.3347Z" fill="white"/>
</svg>
