<svg width="24" height="24" viewBox="0 0 24 24" fill="none" xmlns="http://www.w3.org/2000/svg">
<path fill-rule="evenodd" clip-rule="evenodd" d="M4.52962 5.62183C3.61364 5.62183 2.87109 6.36437 2.87109 7.28035V15.573C2.87109 16.489 3.61364 17.2315 4.52962 17.2315H11.6296C11.588 16.9612 11.5664 16.6843 11.5664 16.4023C11.5664 13.4187 13.9851 11 16.9688 11C17.5473 11 18.1046 11.0909 18.6271 11.2593V7.28036C18.6271 6.36438 17.8846 5.62183 16.9686 5.62183H4.52962Z" fill="black"/>
<path fill-rule="evenodd" clip-rule="evenodd" d="M16.9689 12.0488C14.5644 12.0488 12.6152 13.998 12.6152 16.4025C12.6152 18.8069 14.5644 20.7561 16.9689 20.7561C19.3733 20.7561 21.3225 18.8069 21.3225 16.4025C21.3225 13.998 19.3733 12.0488 16.9689 12.0488Z" fill="black"/>
</svg>
