<svg width="24" height="24" viewBox="0 0 24 24" fill="none" xmlns="http://www.w3.org/2000/svg">
<g clip-path="url(#clip0_2735_38878)">
<path d="M4.5 5C4.5 4.72386 4.72386 4.5 5 4.5H6V19.5H5C4.72386 19.5 4.5 19.2761 4.5 19V5Z" fill="black"/>
<path fill-rule="evenodd" clip-rule="evenodd" d="M3.80078 5.00005C3.80078 4.33731 4.33804 3.80005 5.00078 3.80005H6.70078V20.2H5.00078C4.33804 20.2 3.80078 19.6628 3.80078 19V5.00005ZM5.20078 5.20005V18.8H5.30078V5.20005H5.20078Z" fill="black"/>
<path d="M8.5 4.5H19C19.2761 4.5 19.5 4.72386 19.5 5V19C19.5 19.2761 19.2761 19.5 19 19.5H8.5V4.5Z" fill="black"/>
<path fill-rule="evenodd" clip-rule="evenodd" d="M7.80078 3.80005H19.0008C19.6635 3.80005 20.2008 4.33731 20.2008 5.00005V19C20.2008 19.6628 19.6635 20.2 19.0008 20.2H7.80078V3.80005ZM9.20078 5.20005V18.8H18.8008V5.20005H9.20078Z" fill="black"/>
<path fill-rule="evenodd" clip-rule="evenodd" d="M10.1328 10.7272C10.1328 10.3992 10.3987 10.1333 10.7268 10.1333H15.8177C16.1457 10.1333 16.4116 10.3992 16.4116 10.7272C16.4116 11.0553 16.1457 11.3212 15.8177 11.3212H10.7268C10.3987 11.3212 10.1328 11.0553 10.1328 10.7272Z" fill="white"/>
<path fill-rule="evenodd" clip-rule="evenodd" d="M10.1328 13.2727C10.1328 12.9446 10.3987 12.6787 10.7268 12.6787H15.8177C16.1457 12.6787 16.4116 12.9446 16.4116 13.2727C16.4116 13.6007 16.1457 13.8666 15.8177 13.8666H10.7268C10.3987 13.8666 10.1328 13.6007 10.1328 13.2727Z" fill="white"/>
</g>
<defs>
<clipPath id="clip0_2735_38878">
<rect width="24" height="24" fill="white"/>
</clipPath>
</defs>
</svg>
