<svg width="24" height="24" viewBox="0 0 24 24" fill="none" xmlns="http://www.w3.org/2000/svg">
<path d="M12 3.08545C11.5283 3.08545 11.0718 3.25217 10.7111 3.55615L4.71111 8.6157C4.26044 8.99615 4 9.55526 4 10.1446V18.8584C4 19.0626 4.04024 19.2649 4.11841 19.4537C4.19658 19.6424 4.31117 19.8139 4.45561 19.9583C4.60006 20.1028 4.77154 20.2173 4.96027 20.2955C5.149 20.3737 5.35128 20.4139 5.55556 20.4139H8.66667C9.07923 20.4139 9.47489 20.25 9.76661 19.9583C10.0583 19.6666 10.2222 19.2709 10.2222 18.8584V13.9695C10.2222 13.9105 10.2456 13.854 10.2873 13.8123C10.329 13.7707 10.3855 13.7473 10.4444 13.7473H13.5556C13.6145 13.7473 13.671 13.7707 13.7127 13.8123C13.7544 13.854 13.7778 13.9105 13.7778 13.9695V18.8584C13.7778 19.2709 13.9417 19.6666 14.2334 19.9583C14.5251 20.25 14.9208 20.4139 15.3333 20.4139H18.4444C18.857 20.4139 19.2527 20.25 19.5444 19.9583C19.8361 19.6666 20 19.2709 20 18.8584V10.1446C20 9.55526 19.7396 8.99615 19.2889 8.6157L13.2889 3.55615C12.9282 3.25217 12.4717 3.08545 12 3.08545Z" fill="black"/>
</svg>
