<svg width="24" height="24" viewBox="0 0 24 24" fill="none" xmlns="http://www.w3.org/2000/svg">
<path fill-rule="evenodd" clip-rule="evenodd" d="M4.63679 10.2625C4.61302 15.5883 10.4525 19.9286 11.641 20.7498C11.8606 20.9006 12.1504 20.9006 12.37 20.7498C12.6552 20.5543 19.3742 15.8776 19.3742 10.2625C19.3742 8.3336 18.5979 6.48369 17.216 5.11973C15.8341 3.75577 13.9598 2.9895 12.0055 2.9895C10.0512 2.9895 8.17694 3.75577 6.79504 5.11973C5.41314 6.48369 4.63679 8.3336 4.63679 10.2625ZM12.0058 14.2197C11.2257 14.212 10.4653 13.977 9.8199 13.5444C9.17452 13.1118 8.6729 12.5007 8.37797 11.7879C8.08304 11.075 8.00794 10.292 8.16207 9.53718C8.31619 8.78233 8.69267 8.08917 9.24432 7.54468C9.79597 7.00019 10.4982 6.6286 11.263 6.47648C12.0278 6.32436 12.821 6.39849 13.5433 6.68958C14.2656 6.98068 14.8847 7.47579 15.323 8.1128C15.7613 8.7498 15.9993 9.50036 16.0071 10.2703C16.005 11.3171 15.5828 12.3205 14.8329 13.0607C14.0829 13.8009 13.0664 14.2176 12.0058 14.2197Z" fill="black"/>
</svg>
