<svg width="29" height="27" viewBox="0 0 29 27" fill="none" xmlns="http://www.w3.org/2000/svg">
<path d="M14.4795 21.6269C14.4035 21.6271 14.3298 21.6014 14.2705 21.5539C13.9525 21.2989 6.4795 15.2719 5.3625 11.7049C5.06174 10.8787 4.94494 9.9968 5.02025 9.12077C5.09555 8.24474 5.36115 7.39569 5.79849 6.63292C6.14224 6.05157 6.61783 5.55919 7.18689 5.19545C7.75595 4.83171 8.40254 4.60681 9.07449 4.53892C10.1049 4.44143 11.1432 4.61031 12.0896 5.02934C13.0361 5.44837 13.859 6.10349 14.4795 6.93193C15.0999 6.10334 15.9228 5.44811 16.8693 5.02907C17.8157 4.61002 18.854 4.44123 19.8845 4.53892C20.5565 4.60681 21.203 4.83171 21.7721 5.19545C22.3412 5.55919 22.8167 6.05157 23.1605 6.63292C23.5987 7.39856 23.8643 8.25079 23.9386 9.12986C24.0129 10.0089 23.8941 10.8936 23.5905 11.7219C22.4775 15.2719 15.0055 21.2989 14.6905 21.5539C14.6307 21.6018 14.5561 21.6276 14.4795 21.6269Z" fill="white" fill-opacity="0.5"/>
<g filter="url(#filter0_d_2746_38810)">
<path d="M14.4795 21.6269C14.4035 21.6271 14.3298 21.6014 14.2705 21.5539C13.9525 21.2989 6.4795 15.2719 5.3625 11.7049C5.06174 10.8787 4.94494 9.9968 5.02025 9.12077C5.09555 8.24474 5.36115 7.39569 5.79849 6.63292C6.14224 6.05157 6.61783 5.55919 7.18689 5.19545C7.75595 4.83171 8.40254 4.60681 9.07449 4.53892C10.1049 4.44143 11.1432 4.61031 12.0896 5.02934C13.0361 5.44837 13.859 6.10349 14.4795 6.93193C15.0999 6.10334 15.9228 5.44811 16.8693 5.02907C17.8157 4.61002 18.854 4.44123 19.8845 4.53892C20.5565 4.60681 21.203 4.83171 21.7721 5.19545C22.3412 5.55919 22.8167 6.05157 23.1605 6.63292C23.5987 7.39856 23.8643 8.25079 23.9386 9.12986C24.0129 10.0089 23.8941 10.8936 23.5905 11.7219C22.4775 15.2719 15.0055 21.2989 14.6905 21.5539C14.6307 21.6018 14.5561 21.6276 14.4795 21.6269V21.6269Z" stroke="white"/>
</g>
<defs>
<filter id="filter0_d_2746_38810" x="0.498047" y="0.0119629" width="27.9629" height="26.115" filterUnits="userSpaceOnUse" color-interpolation-filters="sRGB">
<feFlood flood-opacity="0" result="BackgroundImageFix"/>
<feColorMatrix in="SourceAlpha" type="matrix" values="0 0 0 0 0 0 0 0 0 0 0 0 0 0 0 0 0 0 127 0" result="hardAlpha"/>
<feOffset/>
<feGaussianBlur stdDeviation="2"/>
<feColorMatrix type="matrix" values="0 0 0 0 0.101961 0 0 0 0 0.101961 0 0 0 0 0.101961 0 0 0 0.4 0"/>
<feBlend mode="normal" in2="BackgroundImageFix" result="effect1_dropShadow_2746_38810"/>
<feBlend mode="normal" in="SourceGraphic" in2="effect1_dropShadow_2746_38810" result="shape"/>
</filter>
</defs>
</svg>
