<svg width="24" height="24" viewBox="0 0 24 24" fill="none" xmlns="http://www.w3.org/2000/svg">
    <g clip-path="url(#clip0_2802_37492)">
        <path d="M19.1663 8.927C18.0513 5.579 15.7733 3.64301 12.7253 3.36101V1.76601C12.7253 1.56285 12.6445 1.36802 12.5009 1.22437C12.3572 1.08071 12.1624 1 11.9593 1C11.7561 1 11.5613 1.08071 11.4176 1.22437C11.2739 1.36802 11.1933 1.56285 11.1933 1.76601V3.36101C8.14325 3.64301 5.86725 5.579 4.75225 8.927C4.47325 9.76 3.15925 17.065 3.01025 17.895C2.99031 18.0052 2.99485 18.1185 3.02357 18.2268C3.05228 18.3351 3.10446 18.4358 3.17641 18.5216C3.24835 18.6075 3.33831 18.6765 3.4399 18.7238C3.54148 18.771 3.65221 18.7953 3.76425 18.795H8.77925C8.74866 18.9434 8.7286 19.0938 8.71925 19.245C8.71925 20.1035 9.06029 20.9268 9.66734 21.5339C10.2744 22.141 11.0977 22.482 11.9563 22.482C12.8148 22.482 13.6381 22.141 14.2452 21.5339C14.8522 20.9268 15.1933 20.1035 15.1933 19.245C15.1846 19.0937 15.1646 18.9433 15.1332 18.795H20.1523C20.2642 18.795 20.3747 18.7704 20.4761 18.7231C20.5776 18.6757 20.6674 18.6067 20.7392 18.5209C20.8111 18.4351 20.8633 18.3346 20.8922 18.2265C20.921 18.1183 20.9258 18.0052 20.9062 17.895C20.7593 17.064 19.4433 9.76 19.1663 8.927ZM13.6663 19.246C13.6718 19.4734 13.6317 19.6997 13.5485 19.9114C13.4653 20.1232 13.3405 20.3161 13.1816 20.4789C13.0227 20.6418 12.8328 20.7711 12.6231 20.8595C12.4135 20.9478 12.1883 20.9933 11.9607 20.9933C11.7332 20.9933 11.508 20.9478 11.2984 20.8595C11.0887 20.7711 10.8988 20.6418 10.7399 20.4789C10.581 20.3161 10.4562 20.1232 10.373 19.9114C10.2898 19.6997 10.2497 19.4734 10.2552 19.246C10.257 19.0935 10.2802 18.942 10.3242 18.796H13.5973C13.641 18.942 13.6632 19.0936 13.6632 19.246H13.6663ZM4.68525 17.264C5.24625 14.164 6.04425 9.91 6.21125 9.411C6.90525 7.323 8.46725 4.836 11.9642 4.836C15.4612 4.836 17.0222 7.323 17.7172 9.411C17.8822 9.911 18.6802 14.17 19.2432 17.264H4.68525Z"
              fill="#1A1A1A"/>
    </g>
    <defs>
        <clipPath id="clip0_2802_37492">
            <rect width="24" height="24" fill="white"/>
        </clipPath>
    </defs>
</svg>
