<svg width="24" height="24" viewBox="0 0 24 24" fill="none" xmlns="http://www.w3.org/2000/svg">
<path d="M4.25215 16.5974C3.13306 14.7109 2.74114 12.4808 3.15 10.3258C3.55885 8.17073 4.74034 6.23908 6.47262 4.89353C8.2049 3.54798 10.3688 2.88108 12.558 3.01808C14.7472 3.15507 16.811 4.08652 18.3621 5.63754C19.9131 7.18855 20.8445 9.25242 20.9816 11.4416C21.1186 13.6308 20.4517 15.7947 19.1061 17.527C17.7606 19.2593 15.8289 20.4408 13.6739 20.8496C11.5189 21.2585 9.28874 20.8666 7.40222 19.7475L7.40224 19.7474L4.29131 20.6362C4.1626 20.673 4.0264 20.6747 3.89682 20.6411C3.76724 20.6075 3.649 20.5399 3.55434 20.4453C3.45969 20.3506 3.39207 20.2324 3.35849 20.1028C3.32492 19.9732 3.3266 19.837 3.36338 19.7083L4.25221 16.5974L4.25215 16.5974Z" stroke="#1A1A1A" stroke-width="1.5" stroke-linecap="round" stroke-linejoin="round"/>
<path d="M12.0009 13.1253C12.6227 13.1253 13.1268 12.6213 13.1268 11.9994C13.1268 11.3776 12.6227 10.8735 12.0009 10.8735C11.3791 10.8735 10.875 11.3776 10.875 11.9994C10.875 12.6213 11.3791 13.1253 12.0009 13.1253Z" fill="#1A1A1A"/>
<path d="M7.497 13.1253C8.11882 13.1253 8.6229 12.6213 8.6229 11.9994C8.6229 11.3776 8.11882 10.8735 7.497 10.8735C6.87518 10.8735 6.37109 11.3776 6.37109 11.9994C6.37109 12.6213 6.87518 13.1253 7.497 13.1253Z" fill="#1A1A1A"/>
<path d="M16.5048 13.1253C17.1266 13.1253 17.6307 12.6213 17.6307 11.9994C17.6307 11.3776 17.1266 10.8735 16.5048 10.8735C15.883 10.8735 15.3789 11.3776 15.3789 11.9994C15.3789 12.6213 15.883 13.1253 16.5048 13.1253Z" fill="#1A1A1A"/>
</svg>
