<svg width="24" height="24" viewBox="0 0 24 24" fill="none" xmlns="http://www.w3.org/2000/svg">
<path d="M14.9979 7.49802L7.18889 15.437C7.04563 15.5754 6.93135 15.7409 6.85274 15.9239C6.77413 16.1069 6.73275 16.3038 6.73102 16.5029C6.72929 16.7021 6.76724 16.8996 6.84266 17.084C6.91808 17.2683 7.02946 17.4358 7.1703 17.5766C7.31114 17.7175 7.47862 17.8288 7.66296 17.9043C7.84731 17.9797 8.04483 18.0176 8.24399 18.0159C8.44316 18.0142 8.63999 17.9728 8.823 17.8942C9.006 17.8156 9.17152 17.7013 9.30989 17.558L18.6189 8.12002C19.1654 7.55422 19.4677 6.79641 19.4609 6.00982C19.4541 5.22323 19.1386 4.47079 18.5823 3.91457C18.0261 3.35834 17.2737 3.04284 16.4871 3.036C15.7005 3.02917 14.9427 3.33155 14.3769 3.87802L5.06789 13.316C4.24818 14.1647 3.7946 15.3014 3.80486 16.4813C3.81511 17.6612 4.28837 18.7899 5.12271 19.6242C5.95705 20.4585 7.0857 20.9318 8.26559 20.9421C9.44547 20.9523 10.5822 20.4987 11.4309 19.679L19.1219 11.998" stroke="#1A1A1A" stroke-width="1.5" stroke-linecap="round" stroke-linejoin="round"/>
</svg>
