<svg width="24" height="24" viewBox="0 0 24 24" fill="none" xmlns="http://www.w3.org/2000/svg">
<path d="M10.7111 3.56083C11.0718 3.25682 11.5283 3.09009 12 3.09009C12.4717 3.09009 12.9282 3.25682 13.2889 3.56083L19.2889 8.62083C19.7396 9.00131 20 9.56047 20 10.1499V18.8644C20 19.277 19.8361 19.6727 19.5444 19.9644C19.2527 20.2562 18.857 20.4201 18.4444 20.4201H15.3333C14.9208 20.4201 14.5251 20.2562 14.2334 19.9644C13.9417 19.6727 13.7778 19.277 13.7778 18.8644V13.9751C13.7778 13.9161 13.7544 13.8596 13.7127 13.8179C13.671 13.7762 13.6145 13.7528 13.5556 13.7528H10.4444C10.3855 13.7528 10.329 13.7762 10.2873 13.8179C10.2456 13.8596 10.2222 13.9161 10.2222 13.9751V18.8644C10.2222 19.277 10.0583 19.6727 9.76661 19.9644C9.47489 20.2562 9.07923 20.4201 8.66667 20.4201H5.55556C5.35128 20.4201 5.149 20.3798 4.96027 20.3017C4.77154 20.2235 4.60006 20.1089 4.45561 19.9644C4.31117 19.82 4.19658 19.6485 4.11841 19.4597C4.04024 19.271 4 19.0687 4 18.8644V10.1499C4 9.56047 4.26044 9.00131 4.71111 8.62083L10.7111 3.56083ZM12.4293 4.58047C12.3091 4.47929 12.1571 4.42381 12 4.42381C11.8429 4.42381 11.6909 4.47929 11.5707 4.58047L5.57067 9.63958C5.49642 9.70209 5.43671 9.78006 5.39572 9.86804C5.35472 9.95603 5.33343 10.0519 5.33333 10.149V18.8635C5.33333 18.9862 5.43289 19.0857 5.55556 19.0857H8.66667C8.7256 19.0857 8.78213 19.0623 8.8238 19.0207C8.86548 18.979 8.88889 18.9224 8.88889 18.8635V13.9742C8.88889 13.1146 9.58578 12.4185 10.4444 12.4185H13.5556C14.4142 12.4185 15.1111 13.1146 15.1111 13.9742V18.8635C15.1111 18.9862 15.2107 19.0857 15.3333 19.0857H18.4444C18.5034 19.0857 18.5599 19.0623 18.6016 19.0207C18.6433 18.979 18.6667 18.9224 18.6667 18.8635V10.1499C18.6666 10.0528 18.6453 9.95691 18.6043 9.86893C18.5633 9.78095 18.5036 9.70298 18.4293 9.64047L12.4293 4.58047Z" fill="white"/>
</svg>
