<svg width="24" height="24" viewBox="0 0 24 24" fill="none" xmlns="http://www.w3.org/2000/svg">
<path d="M12 2.00567C6.47143 2.00567 2 6.11642 2 11.1904C2 14.9357 3.58286 16.7234 5.74858 18.3524V22.7464C5.74831 22.7933 5.7612 22.8392 5.7858 22.8792C5.8104 22.9192 5.84574 22.9516 5.88786 22.9727C5.92998 22.9939 5.97721 23.003 6.02427 22.9991C6.07133 22.9952 6.11635 22.9783 6.15428 22.9504L9.95143 20.1542L10.0314 20.1882C10.6808 20.3068 11.3397 20.3666 12 20.3667C17.5314 20.3667 22 16.2559 22 11.1848C22 6.11359 17.52 2 12 2" stroke="#1A1A1A" stroke-width="1.5" stroke-linecap="round"/>
<path d="M8.97172 13.4057C9.38675 13.4195 9.7946 13.2951 10.1313 13.0521C10.468 12.809 10.7145 12.4611 10.8322 12.0629H12.1335C12.0083 12.8041 11.6193 13.4752 11.0382 13.9521C10.4571 14.4291 9.72319 14.6799 8.97172 14.6582C8.52179 14.6703 8.07399 14.5922 7.65476 14.4284C7.23553 14.2645 6.85337 14.0184 6.53085 13.7044C6.20832 13.3905 5.95198 13.0151 5.77694 12.6004C5.6019 12.1858 5.51172 11.7402 5.51172 11.2901C5.51172 10.84 5.6019 10.3945 5.77694 9.97982C5.95198 9.56515 6.20832 9.18976 6.53085 8.87581C6.85337 8.56185 7.23553 8.3157 7.65476 8.15189C8.07399 7.98807 8.52179 7.90991 8.97172 7.92203C9.73195 7.89946 10.4742 8.15555 11.0588 8.6421C11.6433 9.12864 12.0299 9.81208 12.1457 10.5638H10.8468C10.7447 10.1494 10.5025 9.78301 10.1612 9.52672C9.81995 9.27044 9.4006 9.13998 8.97417 9.15744C8.69196 9.14592 8.41045 9.1933 8.14756 9.29656C7.88468 9.39983 7.64619 9.55672 7.44728 9.75723C7.24837 9.95775 7.0934 10.1975 6.99225 10.4612C6.89111 10.7249 6.846 11.0068 6.8598 11.2889C6.85586 11.5678 6.90784 11.8446 7.01267 12.103C7.1175 12.3615 7.27306 12.5963 7.47015 12.7936C7.66725 12.9909 7.90189 13.1468 8.16021 13.2519C8.41853 13.357 8.6953 13.4093 8.97417 13.4057H8.97172ZM17.5561 14.5288H16.3598V11.8431C16.3598 11.223 15.9985 10.8909 15.4442 10.8909C14.8241 10.8909 14.4261 11.2694 14.4261 12.0385V14.5361H13.2322V7.944H14.4261V10.4197C14.7118 9.98512 15.1757 9.77271 15.8056 9.77271C16.0377 9.76394 16.269 9.80469 16.4841 9.89225C16.6992 9.97981 16.8932 10.1122 17.0532 10.2805C17.2242 10.4706 17.3554 10.6929 17.4393 10.9344C17.5231 11.1759 17.5579 11.4318 17.5415 11.6869L17.5561 14.5288Z" fill="#1A1A1A"/>
</svg>
