<svg width="24" height="24" viewBox="0 0 24 24" fill="none" xmlns="http://www.w3.org/2000/svg">
<path d="M10.3531 22.0519C10.1023 22.0521 9.85592 21.9864 9.63861 21.8612C9.4213 21.7361 9.24076 21.5559 9.11511 21.3389L5.40411 14.9099H4.50409C3.57394 14.9086 2.68231 14.5384 2.02469 13.8806C1.36707 13.2228 0.997152 12.331 0.996094 11.4009V9.92883C0.997152 8.99869 1.36707 8.10703 2.02469 7.44922C2.68231 6.79141 3.57394 6.42125 4.50409 6.41992H14.4121C14.5094 6.41992 14.6028 6.45852 14.6716 6.52734C14.7404 6.59617 14.7791 6.68953 14.7791 6.78687C14.7791 6.8842 14.7404 6.97756 14.6716 7.04639C14.6028 7.11521 14.5094 7.15393 14.4121 7.15393H4.50409C3.76845 7.15473 3.0632 7.44738 2.54312 7.96765C2.02304 8.48792 1.73063 9.19319 1.7301 9.92883V11.4009C1.73063 12.1365 2.02304 12.8419 2.54312 13.3622C3.0632 13.8825 3.76845 14.1751 4.50409 14.1759H5.61209C5.67661 14.1758 5.74002 14.1928 5.79587 14.2251C5.85171 14.2574 5.89803 14.3039 5.93011 14.3599L9.74811 20.9729C9.8403 21.1313 9.99138 21.2468 10.1684 21.2942C10.3455 21.3416 10.5341 21.317 10.6931 21.2258L12.6081 20.1199C12.7667 20.0279 12.8824 19.8767 12.9298 19.6996C12.9772 19.5225 12.9525 19.3339 12.8611 19.1749L10.2931 14.7269C10.2607 14.6711 10.2437 14.6077 10.2437 14.5432C10.2436 14.4787 10.2605 14.4152 10.2928 14.3594C10.325 14.3035 10.3714 14.2572 10.4273 14.225C10.4832 14.1928 10.5466 14.1758 10.6111 14.1759H14.4111C14.5084 14.1759 14.6018 14.2145 14.6706 14.2833C14.7394 14.3522 14.7781 14.4455 14.7781 14.5428C14.7781 14.6402 14.7394 14.7335 14.6706 14.8024C14.6018 14.8712 14.5084 14.9099 14.4111 14.9099H11.2451L13.4961 18.8098C13.6847 19.1375 13.7356 19.5266 13.6378 19.8917C13.5399 20.2569 13.3012 20.5685 12.9741 20.7579L11.0591 21.8579C10.8448 21.9831 10.6013 22.05 10.3531 22.0519Z" fill="#1A1A1A" stroke="#1A1A1A" stroke-width="0.7"/>
<path d="M20.7635 13.3849C20.7153 13.3849 20.6676 13.3754 20.623 13.3569C20.5785 13.3385 20.5381 13.3114 20.504 13.2774C20.4699 13.2433 20.4429 13.2029 20.4244 13.1583C20.406 13.1138 20.3965 13.066 20.3965 13.0178C20.3965 12.9696 20.406 12.922 20.4244 12.8774C20.4429 12.8329 20.4699 12.7925 20.504 12.7584C20.5381 12.7244 20.5785 12.6973 20.623 12.6788C20.6676 12.6604 20.7153 12.6509 20.7635 12.6509C21.5765 12.6509 22.2635 12.1368 22.2635 11.5278V9.81287C22.2635 9.20487 21.5775 8.69092 20.7635 8.69092C20.6662 8.69092 20.5728 8.65221 20.504 8.58338C20.4352 8.51455 20.3965 8.42119 20.3965 8.32386C20.3965 8.22652 20.4352 8.13316 20.504 8.06434C20.5728 7.99551 20.6662 7.95692 20.7635 7.95692C21.3045 7.91248 21.8415 8.08195 22.259 8.42896C22.6765 8.77597 22.9412 9.27281 22.9965 9.81287V11.5278C22.9415 12.0681 22.6768 12.5653 22.2593 12.9125C21.8418 13.2597 21.3047 13.4293 20.7635 13.3849Z" fill="#1A1A1A" stroke="#1A1A1A" stroke-width="0.7"/>
<path d="M20.7638 20.0119C20.6927 20.0115 20.6233 19.9907 20.5638 19.9519L14.2168 15.785C14.1657 15.7517 14.1238 15.7061 14.0948 15.6525C14.0658 15.5989 14.0507 15.5389 14.0508 15.4779V5.77787C14.0509 5.71882 14.0653 5.66069 14.0928 5.60844C14.1204 5.55619 14.1601 5.51144 14.2088 5.47795L20.5558 1.06791C20.6107 1.02957 20.6751 1.00707 20.742 1.00273C20.8088 0.998385 20.8756 1.01235 20.9351 1.04326C20.9945 1.07416 21.0444 1.12079 21.0792 1.17802C21.1141 1.23525 21.1326 1.30096 21.1328 1.36796V19.6459C21.1328 19.7432 21.0941 19.8366 21.0253 19.9054C20.9564 19.9743 20.8631 20.0129 20.7658 20.0129L20.7638 20.0119ZM14.7828 15.28L20.3968 18.9649V2.06486L14.7828 5.96489V15.28Z" fill="#1A1A1A" stroke="#1A1A1A" stroke-width="0.7"/>
</svg>
