<svg width="24" height="24" viewBox="0 0 24 24" fill="none" xmlns="http://www.w3.org/2000/svg">
<path d="M13.2689 22H10.731C10.6615 22.0002 10.5944 21.9744 10.5431 21.9275C10.4918 21.8806 10.46 21.8162 10.454 21.747L10.2739 19.678C9.37441 19.5067 8.51269 19.1766 7.729 18.703L6.20203 19.985C6.14864 20.0298 6.08026 20.0529 6.01062 20.0498C5.94098 20.0466 5.87505 20.0174 5.82593 19.968L4.03198 18.174C3.98294 18.1248 3.95413 18.059 3.95117 17.9896C3.94821 17.9202 3.97132 17.8522 4.01599 17.799L5.24695 16.332C4.71294 15.5355 4.33247 14.6462 4.125 13.71L2.25403 13.546C2.18471 13.54 2.12015 13.5082 2.07312 13.4569C2.02609 13.4056 1.99999 13.3386 2 13.269V10.732C2.00022 10.6625 2.02638 10.5955 2.07336 10.5443C2.12035 10.4931 2.18479 10.4612 2.25403 10.455L4.125 10.292C4.33253 9.35544 4.71299 8.46588 5.24695 7.66898L4.01599 6.20298C3.97132 6.14977 3.94821 6.08177 3.95117 6.01237C3.95413 5.94296 3.98294 5.87718 4.03198 5.82798L5.82593 4.03298C5.8753 3.98387 5.94129 3.95499 6.01086 3.95203C6.08044 3.94907 6.14866 3.97224 6.20203 4.01698L7.729 5.29898C8.51269 4.82539 9.37441 4.49523 10.2739 4.32398L10.454 2.25498C10.46 2.18566 10.4918 2.1211 10.5431 2.07408C10.5944 2.02705 10.6614 2.00097 10.731 2.00098H13.2689C13.3385 2.00097 13.4056 2.02705 13.4569 2.07408C13.5082 2.1211 13.54 2.18566 13.546 2.25498L13.7369 4.43798C14.5632 4.65365 15.3481 5.00438 16.0599 5.47598L17.799 4.01698C17.8522 3.97231 17.9202 3.94918 17.9896 3.95214C18.059 3.9551 18.1247 3.98394 18.174 4.03298L19.969 5.82798C20.0178 5.87729 20.0465 5.94304 20.0494 6.01238C20.0524 6.08172 20.0294 6.14968 19.985 6.20298L18.473 8.00298C18.8893 8.69963 19.193 9.45762 19.3729 10.249L21.7429 10.455C21.8122 10.4612 21.8766 10.4931 21.9236 10.5443C21.9706 10.5955 21.9967 10.6625 21.9969 10.732V13.27C21.997 13.3396 21.9709 13.4066 21.9238 13.4579C21.8768 13.5092 21.8122 13.541 21.7429 13.547L19.3729 13.754C19.1928 14.5453 18.8892 15.3033 18.473 16L19.985 17.8C20.0294 17.8533 20.0524 17.9212 20.0494 17.9906C20.0465 18.0599 20.0178 18.1257 19.969 18.175L18.174 19.969C18.125 20.0184 18.0592 20.0475 17.9897 20.0507C17.9203 20.0538 17.8522 20.0307 17.799 19.986L16.0599 18.527C15.348 18.9983 14.5631 19.3487 13.7369 19.564L13.546 21.747C13.54 21.8162 13.5081 21.8806 13.4568 21.9275C13.4055 21.9744 13.3384 22.0002 13.2689 22V22Z" stroke="#1A1A1A" stroke-width="1.5" stroke-miterlimit="10"/>
<path d="M11.9348 15.401C13.849 15.401 15.4008 13.8492 15.4008 11.935C15.4008 10.0208 13.849 8.46899 11.9348 8.46899C10.0205 8.46899 8.46875 10.0208 8.46875 11.935C8.46875 13.8492 10.0205 15.401 11.9348 15.401Z" stroke="#1A1A1A" stroke-width="1.5"/>
</svg>
