<svg width="24" height="24" viewBox="0 0 24 24" fill="none" xmlns="http://www.w3.org/2000/svg">
<path fill-rule="evenodd" clip-rule="evenodd" d="M9.09338 3.75C6.62341 3.75 4.62109 5.75231 4.62109 8.22229C4.62109 10.6923 6.62341 12.6946 9.09338 12.6946C11.5634 12.6946 13.5657 10.6923 13.5657 8.22229C13.5657 5.75231 11.5634 3.75 9.09338 3.75ZM3.12109 8.22229C3.12109 4.92389 5.79498 2.25 9.09338 2.25C12.3918 2.25 15.0657 4.92389 15.0657 8.22229C15.0657 11.5207 12.3918 14.1946 9.09338 14.1946C5.79498 14.1946 3.12109 11.5207 3.12109 8.22229Z" fill="#1A1A1A"/>
<path fill-rule="evenodd" clip-rule="evenodd" d="M16.5 7.5C16.5 7.08579 16.8358 6.75 17.25 6.75H23.25C23.6642 6.75 24 7.08579 24 7.5C24 7.91421 23.6642 8.25 23.25 8.25H17.25C16.8358 8.25 16.5 7.91421 16.5 7.5Z" fill="#1A1A1A"/>
<path fill-rule="evenodd" clip-rule="evenodd" d="M15.5 12C15.5 11.5858 15.8358 11.25 16.25 11.25H23.25C23.6642 11.25 24 11.5858 24 12C24 12.4142 23.6642 12.75 23.25 12.75H16.25C15.8358 12.75 15.5 12.4142 15.5 12Z" fill="#1A1A1A"/>
<path fill-rule="evenodd" clip-rule="evenodd" d="M17.75 16.5C17.75 16.0858 18.0858 15.75 18.5 15.75H23.25C23.6642 15.75 24 16.0858 24 16.5C24 16.9142 23.6642 17.25 23.25 17.25H18.5C18.0858 17.25 17.75 16.9142 17.75 16.5Z" fill="#1A1A1A"/>
<path fill-rule="evenodd" clip-rule="evenodd" d="M9.09261 14.1946C7.40619 14.1946 5.76757 14.7549 4.43421 15.7874C3.10085 16.82 2.14833 18.2662 1.72632 19.899C1.62267 20.3 1.21353 20.5411 0.8125 20.4375C0.411465 20.3338 0.170391 19.9247 0.274044 19.5236C0.779257 17.569 1.91957 15.8376 3.5158 14.6015C5.11203 13.3653 7.07371 12.6946 9.09261 12.6946C11.1115 12.6946 13.0732 13.3653 14.6694 14.6015C16.2656 15.8376 17.406 17.569 17.9112 19.5236C18.0148 19.9247 17.7737 20.3338 17.3727 20.4375C16.9717 20.5411 16.5625 20.3 16.4589 19.899C16.0369 18.2662 15.0844 16.82 13.751 15.7874C12.4176 14.7549 10.779 14.1946 9.09261 14.1946Z" fill="#1A1A1A"/>
</svg>
