<svg width="36" height="36" viewBox="0 0 36 36" fill="none" xmlns="http://www.w3.org/2000/svg">
<g clip-path="url(#clip0_2987_10369)">
<path d="M31.1644 21.003C31.3966 19.9799 31.509 18.9332 31.4995 17.8842C31.4371 10.455 25.2902 4.42585 17.8612 4.50069C14.6882 4.53386 11.6283 5.68348 9.21836 7.7478C6.80846 9.81212 5.20259 12.6592 4.68257 15.7895C4.16256 18.9198 4.76162 22.1332 6.37463 24.8658C7.98764 27.5985 10.5115 29.6757 13.5034 30.733C14.0124 30.9123 14.5571 30.9669 15.0916 30.8923C15.6261 30.8176 16.1349 30.6159 16.5754 30.304C17.0158 29.9921 17.375 29.5791 17.6229 29.0997C17.8708 28.6203 18.0001 28.0885 18 27.5488V27C18 26.1049 18.3556 25.2464 18.9885 24.6135C19.6215 23.9806 20.4799 23.625 21.375 23.625H27.8732C28.6377 23.6255 29.3797 23.3664 29.9777 22.89C30.5757 22.4136 30.9941 21.7483 31.1644 21.003V21.003Z" stroke="#1A1A1A" stroke-width="2.25" stroke-linecap="round" stroke-linejoin="round"/>
<path d="M18 12.375C18.932 12.375 19.6875 11.6195 19.6875 10.6875C19.6875 9.75552 18.932 9 18 9C17.068 9 16.3125 9.75552 16.3125 10.6875C16.3125 11.6195 17.068 12.375 18 12.375Z" fill="#1A1A1A"/>
<path d="M11.668 16.0312C12.5999 16.0312 13.3555 15.2757 13.3555 14.3438C13.3555 13.4118 12.5999 12.6562 11.668 12.6562C10.736 12.6562 9.98047 13.4118 9.98047 14.3438C9.98047 15.2757 10.736 16.0312 11.668 16.0312Z" fill="#1A1A1A"/>
<path d="M11.668 23.3438C12.5999 23.3438 13.3555 22.5882 13.3555 21.6562C13.3555 20.7243 12.5999 19.9688 11.668 19.9688C10.736 19.9688 9.98047 20.7243 9.98047 21.6562C9.98047 22.5882 10.736 23.3438 11.668 23.3438Z" fill="#1A1A1A"/>
<path d="M24.332 16.0312C25.264 16.0312 26.0195 15.2757 26.0195 14.3438C26.0195 13.4118 25.264 12.6562 24.332 12.6562C23.4001 12.6562 22.6445 13.4118 22.6445 14.3438C22.6445 15.2757 23.4001 16.0312 24.332 16.0312Z" fill="#1A1A1A"/>
</g>
<defs>
<clipPath id="clip0_2987_10369">
<rect width="36" height="36" fill="white"/>
</clipPath>
</defs>
</svg>
