<svg width="60" height="60" viewBox="0 0 60 60" fill="none" xmlns="http://www.w3.org/2000/svg">
<path fill-rule="evenodd" clip-rule="evenodd" d="M11.3242 12.4998C8.17556 12.4998 5.62305 15.0523 5.62305 18.2009V38.9326C5.62305 42.0813 8.17555 44.6338 11.3242 44.6338H30.5229C30.2215 43.6439 30.0403 42.6016 29.9961 41.524H11.3242C9.89302 41.524 8.73279 40.3638 8.73279 38.9326V18.2009C8.73279 16.7697 9.89302 15.6095 11.3242 15.6095H42.4217C43.8529 15.6095 45.0131 16.7697 45.0131 18.201V28.8367C46.11 29.0689 47.1536 29.4456 48.1229 29.946V18.201C48.1229 15.0523 45.5704 12.4998 42.4217 12.4998H11.3242Z" fill="#BEBEBE"/>
<path fill-rule="evenodd" clip-rule="evenodd" d="M42.4216 30.1219C36.4105 30.1219 31.5375 34.9949 31.5375 41.0061C31.5375 47.0172 36.4105 51.8902 42.4216 51.8902C48.4327 51.8902 53.3057 47.0172 53.3057 41.0061C53.3057 34.9949 48.4327 30.1219 42.4216 30.1219ZM28.4277 41.0061C28.4277 33.2775 34.693 27.0122 42.4216 27.0122C50.1502 27.0122 56.4154 33.2775 56.4154 41.0061C56.4154 48.7346 50.1502 54.9999 42.4216 54.9999C34.693 54.9999 28.4277 48.7346 28.4277 41.0061Z" fill="#BEBEBE"/>
</svg>
