<svg width="36" height="36" viewBox="0 0 36 36" fill="none" xmlns="http://www.w3.org/2000/svg">
<path fill-rule="evenodd" clip-rule="evenodd" d="M17.5189 15.3519C19.9357 15.3519 21.8949 13.3927 21.8949 10.9759C21.8949 8.55912 19.9357 6.5999 17.5189 6.5999C15.1021 6.5999 13.1429 8.55912 13.1429 10.9759C13.1429 13.3927 15.1021 15.3519 17.5189 15.3519ZM23.9948 10.9759C23.9948 14.5525 21.0955 17.4519 17.5189 17.4519C13.9423 17.4519 11.043 14.5525 11.043 10.9759C11.043 7.39937 13.9423 4.5 17.5189 4.5C21.0955 4.5 23.9948 7.39937 23.9948 10.9759Z" fill="#1A1A1A"/>
<path fill-rule="evenodd" clip-rule="evenodd" d="M4.94727 28.4997C4.94727 22.742 10.6852 18.4497 17.2473 18.4497C23.8094 18.4497 29.5473 22.742 29.5473 28.4997C29.5473 29.0796 29.0772 29.5497 28.4973 29.5497C27.9174 29.5497 27.4473 29.0796 27.4473 28.4997C27.4473 24.3149 23.1112 20.5497 17.2473 20.5497C11.3834 20.5497 7.04727 24.3149 7.04727 28.4997C7.04727 29.0796 6.57716 29.5497 5.99727 29.5497C5.41737 29.5497 4.94727 29.0796 4.94727 28.4997Z" fill="#1A1A1A"/>
</svg>
