<svg width="60" height="60" viewBox="0 0 60 60" fill="none" xmlns="http://www.w3.org/2000/svg">
<g clip-path="url(#clip0_2830_41914)">
<path fill-rule="evenodd" clip-rule="evenodd" d="M25.332 26.8181C25.332 25.998 25.9968 25.3333 26.8169 25.3333H39.5442C40.3642 25.3333 41.029 25.998 41.029 26.8181C41.029 27.6382 40.3642 28.3029 39.5442 28.3029H26.8169C25.9968 28.3029 25.332 27.6382 25.332 26.8181Z" fill="#BEBEBE"/>
<path fill-rule="evenodd" clip-rule="evenodd" d="M25.332 33.1816C25.332 32.3616 25.9968 31.6968 26.8169 31.6968H39.5442C40.3642 31.6968 41.029 32.3616 41.029 33.1816C41.029 34.0017 40.3642 34.6665 39.5442 34.6665H26.8169C25.9968 34.6665 25.332 34.0017 25.332 33.1816Z" fill="#BEBEBE"/>
<path fill-rule="evenodd" clip-rule="evenodd" d="M12.9537 12.8405C12.8909 12.8405 12.84 12.8914 12.84 12.9541V47.0451C12.84 47.1078 12.8909 47.1587 12.9537 47.1587H47.0446C47.1073 47.1587 47.1582 47.1078 47.1582 47.0451V12.9541C47.1582 12.8914 47.1073 12.8405 47.0446 12.8405H12.9537ZM9.6582 12.9541C9.6582 11.1341 11.1336 9.65869 12.9537 9.65869H47.0446C48.8646 9.65869 50.34 11.1341 50.34 12.9541V47.0451C50.34 48.8651 48.8646 50.3405 47.0446 50.3405H12.9537C11.1336 50.3405 9.6582 48.8651 9.6582 47.0451V12.9541Z" fill="#BEBEBE"/>
<path fill-rule="evenodd" clip-rule="evenodd" d="M18.7491 9.65869C19.6277 9.65869 20.34 10.371 20.34 11.2496V48.7496C20.34 49.6282 19.6277 50.3405 18.7491 50.3405C17.8705 50.3405 17.1582 49.6282 17.1582 48.7496V11.2496C17.1582 10.371 17.8705 9.65869 18.7491 9.65869Z" fill="#BEBEBE"/>
</g>
<defs>
<clipPath id="clip0_2830_41914">
<rect width="60" height="60" fill="white"/>
</clipPath>
</defs>
</svg>
