<svg width="50" height="50" viewBox="0 0 50 50" fill="none" xmlns="http://www.w3.org/2000/svg">
<path d="M25.0819 36.6361C24.9773 36.6364 24.8757 36.6012 24.7939 36.5361C24.3549 36.1841 14.0449 27.8691 12.5019 22.9471C12.0864 21.8069 11.9249 20.5898 12.0285 19.3808C12.1321 18.1717 12.4985 16.9999 13.1019 15.9471C13.5763 15.1449 14.2326 14.4654 15.0179 13.9636C15.8033 13.4617 16.6956 13.1516 17.6229 13.0581C19.0446 12.9234 20.477 13.156 21.7829 13.7339C23.0889 14.3117 24.2245 15.2153 25.0809 16.3581C25.9371 15.2151 27.0727 14.3113 28.3786 13.7335C29.6846 13.1556 31.1172 12.9231 32.5389 13.0581C33.4662 13.1516 34.3585 13.4617 35.1438 13.9636C35.9291 14.4654 36.5855 15.1449 37.0599 15.9471C37.6645 17.0036 38.0309 18.1795 38.1333 19.3925C38.2358 20.6054 38.0718 21.8261 37.6529 22.9691C36.1179 27.8691 25.8069 36.1831 25.3679 36.5351C25.2867 36.6002 25.1859 36.6358 25.0819 36.6361Z" stroke="black" stroke-width="2"/>
</svg>
