<svg width="50" height="50" viewBox="0 0 50 50" fill="none" xmlns="http://www.w3.org/2000/svg">
<path d="M42 15H43C43 14.4477 42.5523 14 42 14V15ZM7 15V14C6.44772 14 6 14.4477 6 15H7ZM42 20.5556V21.5556C42.5523 21.5556 43 21.1078 43 20.5556H42ZM42 29.4444H43C43 28.8922 42.5523 28.4444 42 28.4444V29.4444ZM42 35V36C42.5523 36 43 35.5523 43 35H42ZM7 35H6C6 35.5523 6.44772 36 7 36V35ZM7 29.4444V28.4444C6.44772 28.4444 6 28.8922 6 29.4444H7ZM7 20.5556H6C6 21.1078 6.44772 21.5556 7 21.5556V20.5556ZM42 14H7V16H42V14ZM43 20.5556V15H41V20.5556H43ZM39 25C39 22.996 40.4396 21.5556 42 21.5556V19.5556C39.1421 19.5556 37 22.0948 37 25H39ZM42 28.4444C40.4396 28.4444 39 27.004 39 25H37C37 27.9052 39.1421 30.4444 42 30.4444V28.4444ZM43 35V29.4444H41V35H43ZM7 36H42V34H7V36ZM6 29.4444V35H8V29.4444H6ZM10 25C10 27.004 8.56035 28.4444 7 28.4444V30.4444C9.85792 30.4444 12 27.9052 12 25H10ZM7 21.5556C8.56035 21.5556 10 22.996 10 25H12C12 22.0948 9.85792 19.5556 7 19.5556V21.5556ZM6 15V20.5556H8V15H6Z" fill="black"/>
<path fill-rule="evenodd" clip-rule="evenodd" d="M29 21.2308V18H31V21.2308H29ZM29 26.6154V23.3846H31V26.6154H29ZM29 32V28.7692H31V32H29Z" fill="black"/>
</svg>
